<svg width="40" height="41" viewBox="0 0 40 41" fill="none" xmlns="http://www.w3.org/2000/svg">
<g clip-path="url(#clip0_126_150)">
<path d="M40 20.5C40 9.4543 31.0457 0.5 20 0.5C8.95431 0.5 0 9.4543 0 20.5C0 30.4826 7.31371 38.7566 16.875 40.2569V26.2812H11.7969V20.5H16.875V16.0938C16.875 11.0812 19.8609 8.3125 24.4293 8.3125C26.6175 8.3125 28.9062 8.70312 28.9062 8.70312V13.625H26.3843C23.8998 13.625 23.125 15.1667 23.125 16.7483V20.5H28.6719L27.7852 26.2812H23.125V40.2569C32.6863 38.7566 40 30.4826 40 20.5Z" fill="#BF00FF"/>
</g>
<defs>
<clipPath id="clip0_126_150">
<rect width="40" height="40" fill="white" transform="translate(0 0.5)"/>
</clipPath>
</defs>
</svg>
