<svg width="40" height="41" viewBox="0 0 40 41" fill="none" xmlns="http://www.w3.org/2000/svg">
<path fill-rule="evenodd" clip-rule="evenodd" d="M20 2.09467C9.57907 2.09467 1.12875 10.5431 1.12875 20.9659C1.12875 29.304 6.53594 36.3775 14.0341 38.8731C14.9769 39.0481 15.3231 38.4637 15.3231 37.9653C15.3231 37.5153 15.3056 36.0287 15.2975 34.4519C10.0475 35.5934 8.93969 32.2253 8.93969 32.2253C8.08125 30.044 6.84438 29.464 6.84438 29.464C5.13188 28.2928 6.97344 28.3172 6.97344 28.3172C8.86813 28.45 9.86625 30.2619 9.86625 30.2619C11.5494 33.1462 14.2809 32.3125 15.3578 31.8306C15.5272 30.6109 16.0163 29.7781 16.5559 29.3069C12.3644 28.8303 7.95782 27.2119 7.95782 19.9809C7.95782 17.9206 8.69532 16.2372 9.9025 14.9153C9.70625 14.4403 9.06032 12.5209 10.085 9.92154C10.085 9.92154 11.6694 9.41435 15.2756 11.8559C16.7813 11.4375 18.3959 11.2272 20 11.22C21.6031 11.2272 23.2188 11.4369 24.7272 11.8553C28.3291 9.41373 29.9116 9.92092 29.9116 9.92092C30.9388 12.52 30.2928 14.4397 30.0969 14.9147C31.3069 16.2365 32.0391 17.92 32.0391 19.9803C32.0391 27.2284 27.6244 28.824 23.4222 29.2915C24.0994 29.8772 24.7025 31.0259 24.7025 32.7862C24.7025 35.3112 24.6806 37.3434 24.6806 37.965C24.6806 38.4672 25.0206 39.0556 25.9769 38.8703C33.4706 36.3722 38.8716 29.3009 38.8716 20.9659C38.8713 10.5437 30.4219 2.09467 20 2.09467Z" fill="#BF00FF"/>
<path d="M8.27624 29.1894C8.23468 29.2831 8.08718 29.3113 7.95281 29.2472C7.81531 29.1859 7.73874 29.0581 7.78312 28.9641C7.82374 28.8672 7.97156 28.8406 8.10812 28.9053C8.24562 28.9669 8.32374 29.0959 8.27593 29.1897L8.27624 29.1894ZM9.04062 30.0422C8.95093 30.1256 8.77499 30.0869 8.65562 29.9547C8.53187 29.8234 8.50874 29.6475 8.60031 29.5628C8.69343 29.4797 8.86406 29.5191 8.98781 29.6503C9.11093 29.7834 9.13531 29.9578 9.04093 30.0425L9.04062 30.0422ZM9.78499 31.1288C9.66937 31.2094 9.47999 31.1341 9.36312 30.9663C9.24749 30.7981 9.24749 30.5966 9.36624 30.5163C9.48281 30.4356 9.66937 30.5084 9.78812 30.6747C9.90312 30.845 9.90312 31.0469 9.78499 31.1288ZM10.8041 32.1791C10.7009 32.2931 10.4803 32.2625 10.3191 32.1072C10.1544 31.955 10.1084 31.7384 10.2119 31.6247C10.3169 31.5103 10.5384 31.5422 10.7006 31.6966C10.8653 31.8484 10.915 32.0653 10.8047 32.1788L10.8041 32.1791ZM12.2103 32.7888C12.1644 32.9366 11.9525 33.0038 11.7384 32.9406C11.525 32.8759 11.3853 32.7031 11.4291 32.5538C11.4728 32.4047 11.6862 32.335 11.9016 32.4022C12.115 32.4666 12.2547 32.6384 12.2103 32.7888ZM13.755 32.9016C13.7603 33.0572 13.5791 33.1859 13.355 33.1891C13.1291 33.1944 12.9462 33.0681 12.9441 32.915C12.9441 32.7578 13.1216 32.6306 13.3472 32.6263C13.5712 32.6222 13.7553 32.7472 13.7553 32.9013L13.755 32.9016ZM15.1919 32.6572C15.2187 32.8088 15.0628 32.9647 14.84 33.0063C14.6212 33.0469 14.4181 32.9525 14.39 32.8022C14.3631 32.6466 14.5219 32.4906 14.7406 32.4503C14.9637 32.4119 15.1637 32.5031 15.1919 32.6572Z" fill="#BF00FF"/>
</svg>
