<svg width="40" height="41" viewBox="0 0 40 41" fill="none" xmlns="http://www.w3.org/2000/svg">
<path fill-rule="evenodd" clip-rule="evenodd" d="M20 2.09473C9.5791 2.09473 1.12878 10.5432 1.12878 20.966C1.12878 29.3041 6.53597 36.3775 14.0341 38.8732C14.9769 39.0482 15.3232 38.4638 15.3232 37.9654C15.3232 37.5154 15.3057 36.0288 15.2975 34.4519C10.0475 35.5935 8.93972 32.2254 8.93972 32.2254C8.08128 30.0441 6.84441 29.4641 6.84441 29.4641C5.13191 28.2929 6.97347 28.3172 6.97347 28.3172C8.86816 28.45 9.86628 30.2619 9.86628 30.2619C11.5494 33.1463 14.281 32.3125 15.3578 31.8307C15.5272 30.611 16.0163 29.7782 16.556 29.3069C12.3644 28.8304 7.95785 27.2119 7.95785 19.981C7.95785 17.9207 8.69535 16.2372 9.90253 14.9154C9.70628 14.4404 9.06035 12.521 10.085 9.9216C10.085 9.9216 11.6694 9.41441 15.2757 11.856C16.7813 11.4375 18.396 11.2272 20 11.22C21.6032 11.2272 23.2188 11.4369 24.7272 11.8554C28.3291 9.41379 29.9116 9.92098 29.9116 9.92098C30.9388 12.52 30.2928 14.4397 30.0969 14.9147C31.3069 16.2366 32.0391 17.92 32.0391 19.9804C32.0391 27.2285 27.6244 28.8241 23.4222 29.2916C24.0994 29.8772 24.7025 31.026 24.7025 32.7863C24.7025 35.3113 24.6807 37.3435 24.6807 37.965C24.6807 38.4672 25.0207 39.0557 25.9769 38.8704C33.4707 36.3722 38.8716 29.301 38.8716 20.966C38.8713 10.5438 30.4219 2.09473 20 2.09473Z" fill="#F5F4F6"/>
<path d="M8.27624 29.1893C8.23468 29.2831 8.08718 29.3112 7.95281 29.2471C7.81531 29.1859 7.73874 29.0581 7.78312 28.964C7.82374 28.8671 7.97156 28.8406 8.10812 28.9053C8.24562 28.9668 8.32374 29.0959 8.27593 29.1896L8.27624 29.1893ZM9.04062 30.0421C8.95093 30.1256 8.77499 30.0868 8.65562 29.9546C8.53187 29.8234 8.50874 29.6474 8.60031 29.5628C8.69343 29.4796 8.86406 29.519 8.98781 29.6503C9.11093 29.7834 9.13531 29.9578 9.04093 30.0424L9.04062 30.0421ZM9.78499 31.1287C9.66937 31.2093 9.47999 31.134 9.36312 30.9662C9.24749 30.7981 9.24749 30.5965 9.36624 30.5162C9.48281 30.4356 9.66937 30.5084 9.78812 30.6746C9.90312 30.8449 9.90312 31.0468 9.78499 31.1287ZM10.8041 32.179C10.7009 32.2931 10.4803 32.2624 10.3191 32.1071C10.1544 31.9549 10.1084 31.7384 10.2119 31.6246C10.3169 31.5103 10.5384 31.5421 10.7006 31.6965C10.8653 31.8484 10.915 32.0653 10.8047 32.1787L10.8041 32.179ZM12.2103 32.7887C12.1644 32.9365 11.9525 33.0037 11.7384 32.9406C11.525 32.8759 11.3853 32.7031 11.4291 32.5537C11.4728 32.4046 11.6862 32.3349 11.9016 32.4021C12.115 32.4665 12.2547 32.6384 12.2103 32.7887ZM13.755 32.9015C13.7603 33.0571 13.5791 33.1859 13.355 33.189C13.1291 33.1943 12.9462 33.0681 12.9441 32.9149C12.9441 32.7578 13.1216 32.6306 13.3472 32.6262C13.5712 32.6221 13.7553 32.7471 13.7553 32.9012L13.755 32.9015ZM15.1919 32.6571C15.2187 32.8087 15.0628 32.9646 14.84 33.0062C14.6212 33.0468 14.4181 32.9524 14.39 32.8021C14.3631 32.6465 14.5219 32.4906 14.7406 32.4503C14.9637 32.4118 15.1637 32.5031 15.1919 32.6571Z" fill="#F5F4F6"/>
</svg>
