<svg width="40" height="41" viewBox="0 0 40 41" fill="none" xmlns="http://www.w3.org/2000/svg">
<path d="M6.85955 31.9184H11.7149V20.147L4.77063 14.9812V29.8577C4.77063 30.9868 5.70218 31.9184 6.85955 31.9184Z" fill="#F5F4F6"/>
<path d="M28.3134 31.9184H33.1687C34.3261 31.9184 35.2576 30.9868 35.2576 29.8295V14.9812L28.3416 20.1753V31.9184H28.3134Z" fill="#F5F4F6"/>
<path d="M28.3134 11.1703V20.1753L35.2294 14.9812V12.2148C35.2294 9.64597 32.2936 8.17808 30.2329 9.73066L28.3134 11.1703Z" fill="#F5F4F6"/>
<path fill-rule="evenodd" clip-rule="evenodd" d="M11.6866 20.1471V11.1704L19.9859 17.4089L28.2851 11.1704V20.1753L20.0141 26.3857L11.6866 20.1471Z" fill="#F5F4F6"/>
<path d="M4.77063 12.1867V14.9531L11.6867 20.1472V11.1704L9.73887 9.70256C7.70641 8.17821 4.77063 9.6461 4.77063 12.1867Z" fill="#F5F4F6"/>
</svg>
