<svg width="40" height="41" viewBox="0 0 40 41" fill="none" xmlns="http://www.w3.org/2000/svg">
<path d="M6.85955 31.9185H11.7149V20.1472L4.77063 14.9813V29.8578C4.77063 30.987 5.70218 31.9185 6.85955 31.9185Z" fill="#D352FF"/>
<path d="M28.3134 31.9185H33.1687C34.3261 31.9185 35.2576 30.987 35.2576 29.8296V14.9813L28.3416 20.1754V31.9185H28.3134Z" fill="#8200AD"/>
<path d="M28.3134 11.1704V20.1754L35.2294 14.9813V12.2149C35.2294 9.64609 32.2936 8.1782 30.2329 9.73078L28.3134 11.1704Z" fill="#C929FF"/>
<path fill-rule="evenodd" clip-rule="evenodd" d="M11.6867 20.1471V11.1704L19.9859 17.4089L28.2851 11.1704V20.1753L20.0141 26.3857L11.6867 20.1471Z" fill="#BF00FF"/>
<path d="M4.77063 12.1867V14.9531L11.6867 20.1472V11.1704L9.73887 9.70256C7.70641 8.17821 4.77063 9.6461 4.77063 12.1867Z" fill="#A000D6"/>
</svg>
