<svg width="40" height="41" viewBox="0 0 40 41" fill="none" xmlns="http://www.w3.org/2000/svg">
<g clip-path="url(#clip0_126_146)">
<path d="M20 0.5C8.95375 0.5 0 9.45375 0 20.5C0 31.545 8.95375 40.5 20 40.5C31.0462 40.5 40 31.545 40 20.5C40 9.45375 31.0462 0.5 20 0.5Z" fill="#BF00FF"/>
<path d="M30.3675 29.1775V21.5062C30.3675 17.3962 28.1737 15.4837 25.2475 15.4837C22.8862 15.4837 21.8287 16.7825 21.24 17.6937V15.7975H16.7925C16.8512 17.0537 16.7925 29.1775 16.7925 29.1775H21.24V21.705C21.24 21.3062 21.2687 20.9062 21.3862 20.6212C21.7075 19.8225 22.4387 18.995 23.6675 18.995C25.2775 18.995 25.9212 20.2212 25.9212 22.02V29.1787L30.3675 29.1775ZM12.1062 13.9712C13.6562 13.9712 14.6225 12.9425 14.6225 11.6587C14.5937 10.3462 13.6562 9.34747 12.135 9.34747C10.6137 9.34747 9.62 10.3462 9.62 11.6587C9.62 12.9437 10.585 13.9712 12.0787 13.9712H12.1062ZM14.33 29.1775V15.7975H9.88375V29.1775H14.33Z" fill="#0A040C"/>
</g>
<defs>
<clipPath id="clip0_126_146">
<rect width="40" height="40" fill="white" transform="translate(0 0.5)"/>
</clipPath>
</defs>
</svg>
